Coordinates
version=1
nRows=18
nColumns=22
inDegrees=yes

Units are S.I. units (second, meters, Newtons, ...)
If the header above contains a line with 'inDegrees', this indicates whether rotational values are in degrees (yes) or radians (no).

endheader
time	pelvis_tilt	pelvis_list	pelvis_rotation	pelvis_tx	pelvis_ty	pelvis_tz	hip_flexion_r	hip_adduction_r	hip_rotation_r	knee_angle_r	ankle_angle_r	subtalar_angle_r	hip_flexion_l	hip_adduction_l	hip_rotation_l	knee_angle_l	ankle_angle_l	subtalar_angle_l	lumbar_extension	lumbar_bending	lumbar_rotation
      1.52000000	     -8.98929223	      0.61728048	     -9.38929430	     -1.13350884	      0.88216547	     -0.08666810	     10.10122193	     -6.28216219	      4.32762107	     -8.27051308	     12.17425422	      2.47127477	      7.78179742	     -4.80758530	     -9.14662848	     -9.11372503	     13.65631718	      5.32363855	      3.69509344	     -1.13617253	     10.78770489
      1.53000000	     -8.99560567	      0.62297030	     -9.40421774	     -1.13335095	      0.88212856	     -0.08665060	     10.08644630	     -6.29039391	      4.33096387	     -8.24485189	     12.19158237	      2.47563704	      7.78281958	     -4.80236880	     -9.13655606	     -9.13359690	     13.69840333	      5.28997163	      3.71060433	     -1.14402266	     10.80659583
      1.54000000	     -8.99524167	      0.62777674	     -9.43121050	     -1.13320504	      0.88209154	     -0.08662922	     10.07538906	     -6.29680403	      4.35892064	     -8.23461744	     12.20448487	      2.49609345	      7.79493503	     -4.80070865	     -9.17028227	     -9.19341626	     13.77061326	      5.14140599	      3.71407160	     -1.14760362	     10.81217839
      1.55000000	     -8.99152356	      0.64125417	     -9.44332317	     -1.13304041	      0.88205772	     -0.08666442	     10.05718240	     -6.31860912	      4.40036701	     -8.22255795	     12.23237306	      2.50032124	      7.80095641	     -4.78235003	     -9.14203612	     -9.24233399	     13.81993828	      5.11152261	      3.71574570	     -1.15807048	     10.82314557
      1.56000000	     -8.98212177	      0.66149167	     -9.46143136	     -1.13285510	      0.88201729	     -0.08671164	     10.03870336	     -6.34962382	      4.45807857	     -8.22149162	     12.27565215	      2.50591557	      7.81204092	     -4.75744144	     -9.14245835	     -9.31563343	     13.89195868	      5.05935637	      3.71196853	     -1.17438100	     10.82878839
      1.57000000	     -8.97673938	      0.69706796	     -9.50153023	     -1.13264920	      0.88195545	     -0.08675888	     10.04682140	     -6.39418308	      4.53294715	     -8.25079763	     12.35458884	      2.51659347	      7.83139355	     -4.71845210	     -9.19773871	     -9.40231448	     13.98483424	      4.92273331	      3.71582618	     -1.20041923	     10.85265031
      1.58000000	     -8.95956704	      0.71509333	     -9.51212561	     -1.13245101	      0.88192850	     -0.08685943	     10.03788548	     -6.42650893	      4.62520413	     -8.29059599	     12.39945456	      2.51984133	      7.84001855	     -4.69031052	     -9.15249986	     -9.48513543	     14.01959244	      4.88407822	      3.69594206	     -1.21497397	     10.85679672
      1.59000000	     -8.94572088	      0.77738622	     -9.55338436	     -1.13220877	      0.88185095	     -0.08698112	     10.06594212	     -6.50634851	      4.73646079	     -8.37203704	     12.55294741	      2.52461315	      7.85822725	     -4.61483227	     -9.20394153	     -9.58139140	     14.12334456	      4.75226109	      3.68949518	     -1.26762993	     10.88505352
      1.60000000	     -8.94055321	      0.84057797	     -9.59858171	     -1.13199941	      0.88177733	     -0.08709656	     10.13998598	     -6.58028831	      4.87826890	     -8.51882628	     12.67617394	      2.53862020	      7.88517939	     -4.53958304	     -9.21793738	     -9.67310028	     14.15506545	      4.55298976	      3.68515485	     -1.32630770	     10.91975817
      1.61000000	     -8.91536809	      0.88699202	     -9.61986000	     -1.13170142	      0.88172208	     -0.08727255	     10.15514824	     -6.64970956	      5.00410471	     -8.62067128	     12.83104037	      2.54592998	      7.88771425	     -4.47268108	     -9.20399484	     -9.76735615	     14.24718170	      4.47784105	      3.65762637	     -1.37076150	     10.91735302
      1.62000000	     -8.89999606	      0.96116580	     -9.66977655	     -1.13143226	      0.88165293	     -0.08744924	     10.24327661	     -6.74061868	      5.15600295	     -8.81658970	     12.99235377	      2.57089830	      7.90213727	     -4.37746975	     -9.22700018	     -9.85769856	     14.28223245	      4.31673110	      3.63830312	     -1.44259710	     10.95040058
      1.63000000	     -8.87138993	      1.01344721	     -9.69626650	     -1.13107149	      0.88159570	     -0.08769518	     10.27470551	     -6.82044674	      5.29363013	     -8.95983665	     13.17742395	      2.58759517	      7.90035464	     -4.29595984	     -9.20879227	     -9.95554479	     14.38927155	      4.23643888	      3.60372725	     -1.49262232	     10.95812185
      1.64000000	     -8.86405507	      1.10382591	     -9.75947234	     -1.13073143	      0.88151072	     -0.08793010	     10.39433720	     -6.92883802	      5.45444913	     -9.19571929	     13.36150911	      2.64133395	      7.92623097	     -4.17949120	     -9.23361703	    -10.05831015	     14.42223818	      4.04013162	      3.59630096	     -1.57932189	     11.01210655
      1.65000000	     -8.85198186	      1.17896216	     -9.80566932	     -1.13032240	      0.88142622	     -0.08824855	     10.48150349	     -7.03046939	      5.60033449	     -9.39819164	     13.55543948	      2.69826234	      7.95218021	     -4.07086185	     -9.23149015	    -10.17807077	     14.51272809	      3.87338739	      3.58340117	     -1.64621915	     11.05292790
      1.66000000	     -8.85075887	      1.26403579	     -9.86331793	     -1.12987244	      0.88132621	     -0.08859814	     10.58259516	     -7.14148797	      5.74832141	     -9.60105773	     13.75184071	      2.76709019	      7.99468127	     -3.95231003	     -9.23165783	    -10.31222830	     14.60976621	      3.70089611	      3.58676149	     -1.71924182	     11.11188661
      1.67000000	     -8.86380503	      1.35395468	     -9.92262868	     -1.12938273	      0.88120361	     -0.08900810	     10.69434459	     -7.25958961	      5.89300534	     -9.79473085	     13.94013167	      2.85385949	      8.06248812	     -3.82825145	     -9.23048299	    -10.46915454	     14.71618679	      3.51314252	      3.60881945	     -1.79095682	     11.18153481
      1.68000000	     -8.88819641	      1.44758205	     -9.98331893	     -1.12883776	      0.88106562	     -0.08947049	     10.80425054	     -7.38418446	      6.02618375	     -9.96506009	     14.11848266	      2.95632103	      8.15417701	     -3.70042715	     -9.22447268	    -10.65528671	     14.83589075	      3.31922240	      3.64828093	     -1.86342707	     11.25886974
      1.69000000	     -8.94365963	      1.54526651	    -10.03461707	     -1.12826943	      0.88088907	     -0.09003244	     10.93529766	     -7.51595732	      6.17524032	    -10.11710014	     14.27031329	      3.11395107	      8.29276875	     -3.56725103	     -9.19534086	    -10.86382299	     14.96206875	      3.06348324	      3.72083096	     -1.92793037	     11.31801048
